<svg xmlns="http://www.w3.org/2000/svg" version="1.1" xmlns:xlink="http://www.w3.org/1999/xlink" xmlns:svgjs="http://svgjs.dev/svgjs" width="1500" height="1347" viewBox="0 0 1500 1347"><g transform="matrix(1,0,0,1,-0.5845911025144233,0.5469265277496334)"><svg viewBox="0 0 275 247" data-background-color="#000000" preserveAspectRatio="xMidYMid meet" height="1347" width="1500" xmlns="http://www.w3.org/2000/svg" xmlns:xlink="http://www.w3.org/1999/xlink"><g id="tight-bounds" transform="matrix(1,0,0,1,0.10717503546098328,-0.10007915888590446)"><svg viewBox="0 0 274.78564992907803 247.2" height="247.2" width="274.78564992907803"><rect width="274.78564992907803" height="247.20036932395953" fill="url(#e0c481d9-7fed-4351-8d74-6726c4bc76f0)" mask="url(#74260828-3317-4870-8dfa-8113cfc93035)" data-fill-palette-color="tertiary"></rect><g><svg viewBox="0 0 274.78564992907803 247.2" height="247.2" width="274.78564992907803"><g><svg viewBox="0 0 274.78564992907803 247.2" height="247.2" width="274.78564992907803"><g id="textblocktransform"><svg viewBox="0 0 274.78564992907803 247.2" height="247.2" width="274.78564992907803" id="textblock"><g><svg viewBox="0 0 274.78564992907803 247.2" height="247.2" width="274.78564992907803"><path d="M274.142 53.02C272.85 27.36 269.169 20.227 269.169 20.227 257.865-6.202 243.759-0.506 231.086 3.292 208.711 3.446 186.427 9.091 164.105 12.119 117.25 12.581 69.995 4.986 23.373 23.717 18.994 29.464-4.543 24.846 0.779 56.304 2.174 69.39 7.264 83.913 7.109 95.922 7.806 98.026 8.775 93.202 9.189 96.23 10.636 104.39 13 100.541 14.937 105.365 12.237 118.246 14.175 128.971 16.023 140.21 12.767 143.135 8.595 141.749 6.721 151.449 6.528 158.479 5.481 157.145 4.331 156.837 3.492 156.632 1.8 157.402 2.084 159.608 3.053 167.152-1.107 171.514 1.502 178.904-0.293 186.91 2.743 193.838 2.329 202.511 2.277 204.255 2.562 205.744 3.014 206.154 5.016 208.361 2.097 212.672 2.407 217.342 22.947 249.262 45.231 227.195 66.275 241.872 71.739 231.608 67.631 245.516 69.814 243.36 71.519 240.846 72.76 251.263 74.684 245.362 74.981 243.668 74.529 239.665 75.589 240.435 76.144 240.846 76.635 240.743 76.713 238.382 76.829 234.841 75.808 237.048 75.537 235.201 78.469 225.861 77.746 248.081 80.498 247.158 80.368 244.438 79.567 240.538 81.208 241.051 82.836 237.151 82.887 233.918 84.334 242.693 84.386 244.592 84.644 245.926 85.058 246.85 89.579 237.305 94.075 250.237 98.816 245.926 101.722 241.205 104.513 248.492 107.458 246.696 108.491 245.259 109.538 242.693 110.533 247.004 122.714 247.928 135.697 244.079 147.246 247.158 178.108 241.41 211.088 249.518 243.629 241.923 251.303 238.998 259.273 234.841 266.753 231.506 266.753 231.506 272.812 222.371 272.812 181.316S274.104 145.393 274.297 112.703C274.491 80.013 275.395 78.679 274.104 53.02Z" opacity="1" fill="url(#e0c481d9-7fed-4351-8d74-6726c4bc76f0)" data-fill-palette-color="tertiary"></path><g transform="matrix(1,0,0,1,55.76832,26.230666666666668)"><svg width="163.24900992907803" viewBox="3.85 -35.7 29.549999999999997 35.25" height="194.73866666666666" data-palette-color="#000000"><path d="M30.9-35.7Q33.4-35.7 33.4-33.05L33.4-33.05 33.35-16.45Q33.35-9.9 32.95-6.5 32.55-3.1 31.7-1.83 30.85-0.55 29.2-0.55L29.2-0.55Q27.65-0.55 26.03-1.98 24.4-3.4 22.38-6.33 20.35-9.25 16.65-15.15L16.65-15.15Q10.65-24.75 8.85-27.35L8.85-27.35 8.9-16.9 8.95-2.55Q8.95-1.7 8.25-1.07 7.55-0.45 6.45-0.45L6.45-0.45Q5.4-0.45 4.67-1.07 3.95-1.7 3.95-2.55L3.95-2.55 3.95-17.05 3.9-23.8Q3.85-26 3.85-30.1L3.85-30.1Q3.85-32.95 4.45-34.15 5.05-35.35 6.75-35.35L6.75-35.35Q8.25-35.35 9.65-34.15 11.05-32.95 12.63-30.68 14.2-28.4 17.35-23.35L17.35-23.35 19.05-20.6Q22.95-14.35 24.83-11.53 26.7-8.7 28.05-6.9L28.05-6.9Q28.35-12 28.35-16.45L28.35-16.45 28.35-33.5Q28.35-34.5 29-35.1 29.65-35.7 30.9-35.7L30.9-35.7Z" opacity="1" transform="matrix(1,0,0,1,0,0)" fill="#000000" class="wordmark-text-0" data-fill-palette-color="quaternary" id="text-0"></path></svg></g></svg></g></svg></g></svg></g><g></g></svg></g><defs></defs><mask id="74260828-3317-4870-8dfa-8113cfc93035"><g id="SvgjsG1086"><svg viewBox="0 0 274.78564992907803 247.2" height="247.2" width="274.78564992907803"><g><svg viewBox="0 0 274.78564992907803 247.2" height="247.2" width="274.78564992907803"><g><svg viewBox="0 0 274.78564992907803 247.2" height="247.2" width="274.78564992907803"><g id="SvgjsG1085"><svg viewBox="0 0 274.78564992907803 247.2" height="247.2" width="274.78564992907803" id="SvgjsSvg1084"><g><svg viewBox="0 0 274.78564992907803 247.2" height="247.2" width="274.78564992907803"><path d="M274.142 53.02C272.85 27.36 269.169 20.227 269.169 20.227 257.865-6.202 243.759-0.506 231.086 3.292 208.711 3.446 186.427 9.091 164.105 12.119 117.25 12.581 69.995 4.986 23.373 23.717 18.994 29.464-4.543 24.846 0.779 56.304 2.174 69.39 7.264 83.913 7.109 95.922 7.806 98.026 8.775 93.202 9.189 96.23 10.636 104.39 13 100.541 14.937 105.365 12.237 118.246 14.175 128.971 16.023 140.21 12.767 143.135 8.595 141.749 6.721 151.449 6.528 158.479 5.481 157.145 4.331 156.837 3.492 156.632 1.8 157.402 2.084 159.608 3.053 167.152-1.107 171.514 1.502 178.904-0.293 186.91 2.743 193.838 2.329 202.511 2.277 204.255 2.562 205.744 3.014 206.154 5.016 208.361 2.097 212.672 2.407 217.342 22.947 249.262 45.231 227.195 66.275 241.872 71.739 231.608 67.631 245.516 69.814 243.36 71.519 240.846 72.76 251.263 74.684 245.362 74.981 243.668 74.529 239.665 75.589 240.435 76.144 240.846 76.635 240.743 76.713 238.382 76.829 234.841 75.808 237.048 75.537 235.201 78.469 225.861 77.746 248.081 80.498 247.158 80.368 244.438 79.567 240.538 81.208 241.051 82.836 237.151 82.887 233.918 84.334 242.693 84.386 244.592 84.644 245.926 85.058 246.85 89.579 237.305 94.075 250.237 98.816 245.926 101.722 241.205 104.513 248.492 107.458 246.696 108.491 245.259 109.538 242.693 110.533 247.004 122.714 247.928 135.697 244.079 147.246 247.158 178.108 241.41 211.088 249.518 243.629 241.923 251.303 238.998 259.273 234.841 266.753 231.506 266.753 231.506 272.812 222.371 272.812 181.316S274.104 145.393 274.297 112.703C274.491 80.013 275.395 78.679 274.104 53.02Z" opacity="1" fill="white"></path><g transform="matrix(1,0,0,1,55.76832,26.230666666666668)"><svg width="163.24900992907803" viewBox="3.85 -35.7 29.549999999999997 35.25" height="194.73866666666666" data-palette-color="#000000"><path d="M30.9-35.7Q33.4-35.7 33.4-33.05L33.4-33.05 33.35-16.45Q33.35-9.9 32.95-6.5 32.55-3.1 31.7-1.83 30.85-0.55 29.2-0.55L29.2-0.55Q27.65-0.55 26.03-1.98 24.4-3.4 22.38-6.33 20.35-9.25 16.65-15.15L16.65-15.15Q10.65-24.75 8.85-27.35L8.85-27.35 8.9-16.9 8.95-2.55Q8.95-1.7 8.25-1.07 7.55-0.45 6.45-0.45L6.45-0.45Q5.4-0.45 4.67-1.07 3.95-1.7 3.95-2.55L3.95-2.55 3.95-17.05 3.9-23.8Q3.85-26 3.85-30.1L3.85-30.1Q3.85-32.95 4.45-34.15 5.05-35.35 6.75-35.35L6.75-35.35Q8.25-35.35 9.65-34.15 11.05-32.95 12.63-30.68 14.2-28.4 17.35-23.35L17.35-23.35 19.05-20.6Q22.95-14.35 24.83-11.53 26.7-8.7 28.05-6.9L28.05-6.9Q28.35-12 28.35-16.45L28.35-16.45 28.35-33.5Q28.35-34.5 29-35.1 29.65-35.7 30.9-35.7L30.9-35.7Z" opacity="1" transform="matrix(1,0,0,1,0,0)" fill="black" class="wordmark-text-0" id="SvgjsPath1083"></path></svg></g></svg></g></svg></g></svg></g><g></g></svg></g><defs><mask></mask></defs></svg><rect width="274.78564992907803" height="247.2" fill="black" stroke="none" visibility="hidden"></rect></g></mask><linearGradient x1="0" x2="1" y1="0.5" y2="0.5" id="e0c481d9-7fed-4351-8d74-6726c4bc76f0"><stop stop-color="#fff72e" offset="0"></stop><stop stop-color="#deae29" offset="1"></stop></linearGradient></svg><rect width="274.78564992907803" height="247.2" fill="none" stroke="none" visibility="hidden"></rect></g></svg></g></svg>